<svg width="241" height="77" viewBox="0 0 241 77" fill="none" xmlns="http://www.w3.org/2000/svg">
<path d="M52.838 38.7425C52.838 35.7026 54.5305 32.8416 57.3512 31.2323C55.6588 28.9077 52.838 27.4772 49.8293 27.2983C46.6325 26.9407 43.6237 29.0865 41.9313 29.0865C40.2389 29.0865 37.7943 27.2983 35.1616 27.2983C31.5887 27.4772 28.3919 29.2653 26.6995 32.1263C23.1266 38.0272 25.7592 46.9679 29.3321 51.7959C31.0246 54.1205 33.0931 56.8027 35.7257 56.8027C38.3584 56.6239 39.2986 55.1934 42.4954 55.1934C45.6922 55.1934 46.4444 56.8027 49.2651 56.8027C52.0859 56.8027 53.7783 54.4782 55.4707 51.9748C56.787 50.3654 57.7273 48.3985 58.2914 46.4315C54.9066 45.3586 52.838 42.1399 52.838 38.7425Z" fill="white"/>
<path d="M47.5727 24.2585C49.0771 22.4703 49.8293 20.3246 49.6412 18C47.3847 18.1788 45.1281 19.2517 43.6237 21.0398C42.1193 22.6492 41.3671 24.7949 41.5552 27.1195C43.9998 27.1195 46.0683 26.0466 47.5727 24.2585Z" fill="white"/>
<path d="M86.3985 50.4251H77.132L74.9632 56.3751H71.0201L79.8922 34.6751H83.8354L92.7076 56.3751H88.7644L86.3985 50.4251ZM78.1178 47.8001H85.6099L81.8638 38.1751H81.6667L78.1178 47.8001Z" fill="white"/>
<path d="M111.832 48.5001C111.832 53.4001 108.875 56.5501 104.34 56.5501C101.974 56.7251 99.8053 55.5001 98.8195 53.7501V61.6251H95.0735V40.6251H98.6224V43.2501C99.8053 41.5001 101.974 40.4501 104.34 40.4501C108.678 40.2751 111.832 43.6001 111.832 48.5001ZM107.889 48.5001C107.889 45.3501 106.114 43.2501 103.157 43.2501C100.397 43.2501 98.4252 45.3501 98.4252 48.5001C98.4252 51.6501 100.397 53.7501 103.157 53.7501C106.114 53.7501 107.889 51.6501 107.889 48.5001Z" fill="white"/>
<path d="M131.351 48.5001C131.351 53.4001 128.393 56.5501 123.859 56.5501C121.493 56.7251 119.324 55.5001 118.338 53.7501V61.6251H114.592V40.6251H118.141V43.2501C119.324 41.5001 121.493 40.4501 123.859 40.4501C128.393 40.2751 131.351 43.6001 131.351 48.5001ZM127.605 48.5001C127.605 45.3501 125.83 43.2501 122.873 43.2501C120.113 43.2501 118.141 45.3501 118.141 48.5001C118.141 51.6501 120.113 53.7501 122.873 53.7501C125.83 53.7501 127.605 51.6501 127.605 48.5001Z" fill="white"/>
<path d="M144.363 50.25C144.561 52.35 146.926 53.75 150.278 53.75C153.433 53.75 155.602 52.35 155.602 50.425C155.602 48.675 154.221 47.8 151.067 47.1L147.912 46.4C143.378 45.35 141.406 43.6 141.406 40.625C141.406 36.95 145.152 34.325 150.278 34.325C155.404 34.325 158.953 36.95 159.15 40.625H155.404C155.207 38.525 153.236 37.125 150.278 37.125C147.321 37.125 145.349 38.525 145.349 40.45C145.349 42.025 146.729 42.9 149.884 43.6L152.644 44.125C157.573 45.175 159.742 46.925 159.742 50.075C159.742 54.1 155.996 56.725 150.278 56.725C144.758 56.725 141.209 54.275 141.012 50.25H144.363Z" fill="white"/>
<path d="M167.234 36.775V40.45H170.586V43.075H167.234V51.825C167.234 53.225 167.825 53.75 169.403 53.75C169.797 53.75 170.191 53.75 170.586 53.75V56.375C169.994 56.55 169.206 56.55 168.614 56.55C165.065 56.55 163.685 55.325 163.685 52.35V43.25H161.122V40.625H163.685V36.95H167.234V36.775Z" fill="white"/>
<path d="M172.754 48.5C172.754 43.6 176.106 40.45 181.232 40.45C186.358 40.45 189.71 43.6 189.71 48.5C189.71 53.575 186.358 56.55 181.232 56.55C175.909 56.55 172.754 53.4 172.754 48.5ZM185.964 48.5C185.964 45 184.19 43.075 181.232 43.075C178.275 43.075 176.5 45 176.5 48.5C176.5 52 178.275 53.925 181.232 53.925C184.19 53.925 185.964 51.825 185.964 48.5Z" fill="white"/>
<path d="M192.668 40.4501H196.216V43.2501C196.611 41.5001 198.582 40.2751 200.554 40.4501C200.948 40.4501 201.343 40.4501 201.737 40.6251V43.6001C201.145 43.4251 200.554 43.4251 200.16 43.4251C198.188 43.4251 196.414 44.8251 196.414 46.5751C196.414 46.7501 196.414 46.9251 196.414 47.1001V56.5501H192.668V40.4501Z" fill="white"/>
<path d="M218.693 51.65C218.298 54.45 214.947 56.55 211.003 56.55C205.877 56.55 202.525 53.4 202.525 48.5C202.525 43.6 205.68 40.275 210.806 40.275C215.735 40.275 218.89 43.25 218.89 48.15V49.2H206.272V49.375C206.074 51.65 207.849 53.575 210.412 53.925C210.609 53.925 210.806 53.925 211.003 53.925C212.778 54.1 214.552 53.225 215.144 51.65H218.693ZM206.272 46.925H215.144C215.341 44.825 213.369 43.075 211.003 42.9C210.806 42.9 210.806 42.9 210.609 42.9C208.243 42.9 206.272 44.65 206.272 46.925Z" fill="white"/>
<path d="M77.5263 18.225C80.4837 18.05 82.8496 19.975 83.0468 22.425C83.0468 22.775 83.0468 22.95 83.0468 23.3C83.0468 26.625 81.0752 28.55 77.5263 28.55H73.1888V18.05H77.5263V18.225ZM75.1604 27.325H77.3291C79.3007 27.5 81.0752 26.1 81.2723 24.175C81.2723 24 81.2723 23.65 81.2723 23.475C81.4695 21.725 80.0894 19.975 78.1178 19.8C77.9206 19.8 77.7235 19.8 77.3291 19.8H75.1604V27.325Z" fill="white"/>
<path d="M85.2155 24.7C85.0184 22.6 86.5956 20.85 88.9615 20.675C91.3275 20.5 93.2991 21.9 93.4962 24C93.4962 24.175 93.4962 24.525 93.4962 24.7C93.6934 26.8 92.1161 28.55 89.7502 28.725C87.3843 28.9 85.4127 27.5 85.2155 25.4C85.2155 25.225 85.2155 25.05 85.2155 24.7ZM91.7218 24.7C91.7218 22.95 90.9331 22.075 89.3559 22.075C87.7786 22.075 86.9899 23.125 86.9899 24.7C86.9899 26.45 87.7786 27.5 89.3559 27.5C90.9331 27.5 91.7218 26.45 91.7218 24.7Z" fill="white"/>
<path d="M104.734 28.725H102.96L101.185 22.95H100.988L99.2138 28.725H97.4394L95.0735 20.85H96.8479L98.4252 26.8H98.6224L100.397 20.85H102.171L103.946 26.8H104.143L105.72 20.85H107.495L104.734 28.725Z" fill="white"/>
<path d="M109.269 20.85H111.043V22.075H111.241C111.635 21.2 112.818 20.675 113.804 20.675C115.381 20.5 116.761 21.55 116.958 23.125C116.958 23.3 116.958 23.475 116.958 23.65V28.725H115.184V24C115.184 22.775 114.592 22.075 113.212 22.075C112.029 22.075 111.043 22.775 111.043 23.825C111.043 24 111.043 24 111.043 24.175V28.725H109.269V20.85Z" fill="white"/>
<path d="M119.521 17.7H121.296V28.725H119.521V17.7Z" fill="white"/>
<path d="M123.662 24.7C123.464 22.6 125.042 20.85 127.408 20.675C129.774 20.5 131.745 21.9 131.942 24C131.942 24.175 131.942 24.525 131.942 24.7C132.139 26.8 130.562 28.55 128.196 28.725C125.83 28.9 123.859 27.5 123.662 25.4C123.662 25.225 123.662 25.05 123.662 24.7ZM130.365 24.7C130.365 22.95 129.576 22.075 127.999 22.075C126.422 22.075 125.633 23.125 125.633 24.7C125.633 26.45 126.422 27.5 127.999 27.5C129.379 27.5 130.365 26.45 130.365 24.7Z" fill="white"/>
<path d="M133.914 26.45C133.914 25.05 135.097 24.175 137.266 24.175L139.632 24V23.3C139.632 22.425 139.04 22.075 137.857 22.075C136.871 22.075 136.28 22.425 136.083 22.95H134.308C134.505 21.55 135.886 20.675 137.857 20.675C140.026 20.675 141.406 21.725 141.406 23.3V28.725H139.632V27.675H139.434C138.843 28.55 137.857 28.9 136.674 28.9C135.294 29.075 133.914 28.025 133.717 26.8C133.914 26.625 133.914 26.625 133.914 26.45ZM139.632 25.75V25.05L137.463 25.225C136.28 25.225 135.688 25.75 135.688 26.275C135.688 26.975 136.477 27.325 137.266 27.325C138.449 27.675 139.434 26.975 139.632 25.75C139.632 25.925 139.632 25.925 139.632 25.75Z" fill="white"/>
<path d="M143.575 24.7C143.575 22.25 144.955 20.675 147.321 20.675C148.504 20.675 149.49 21.2 150.081 22.075H150.278V17.7H152.053V28.725H150.278V27.5H150.081C149.49 28.375 148.504 28.9 147.321 28.9C145.152 28.9 143.575 27.325 143.575 24.7ZM145.546 24.7C145.546 26.45 146.532 27.325 147.912 27.325C149.292 27.325 150.278 26.275 150.278 24.7C150.278 23.125 149.292 22.075 147.912 22.075C146.335 22.075 145.546 23.125 145.546 24.7Z" fill="white"/>
<path d="M159.15 24.7C158.953 22.6 160.53 20.85 162.896 20.675C165.262 20.5 167.234 21.9 167.431 24C167.431 24.175 167.431 24.525 167.431 24.7C167.628 26.8 166.051 28.55 163.685 28.725C161.319 28.9 159.348 27.5 159.15 25.4C159.15 25.225 159.15 25.05 159.15 24.7ZM165.854 24.7C165.854 22.95 165.065 22.075 163.488 22.075C161.911 22.075 161.122 23.125 161.122 24.7C161.122 26.45 161.911 27.5 163.488 27.5C164.868 27.5 165.854 26.45 165.854 24.7Z" fill="white"/>
<path d="M169.994 20.85H171.769V22.075H171.966C172.36 21.2 173.543 20.675 174.529 20.675C176.106 20.5 177.486 21.55 177.683 23.125C177.683 23.3 177.683 23.475 177.683 23.65V28.725H175.909V24C175.909 22.775 175.317 22.075 173.937 22.075C172.754 22.075 171.769 22.775 171.769 23.825C171.769 24 171.769 24 171.769 24.175V28.725H169.994V20.85Z" fill="white"/>
<path d="M187.344 18.925V20.85H189.316V22.25H187.344V26.275C187.344 27.15 187.738 27.5 188.527 27.5C188.724 27.5 188.921 27.5 189.119 27.5V28.725C188.724 28.725 188.527 28.725 188.133 28.725C186.161 28.725 185.373 28.2 185.373 26.625V22.25H183.992V21.025H185.373V18.925H187.344Z" fill="white"/>
<path d="M191.682 17.7H193.456V22.075H193.653C194.048 21.2 195.231 20.5 196.414 20.675C197.991 20.675 199.371 21.725 199.568 23.125C199.568 23.3 199.568 23.475 199.568 23.65V28.725H197.794V24C197.794 22.775 197.202 22.075 195.822 22.075C194.639 22.075 193.653 22.775 193.653 23.825C193.653 24 193.653 24 193.653 24.175V28.725H191.879L191.682 17.7Z" fill="white"/>
<path d="M209.623 26.625C209.229 28.025 207.454 29.075 205.68 28.9C203.511 28.9 201.54 27.325 201.54 25.4C201.54 25.225 201.54 25.05 201.54 24.875C201.145 22.95 202.723 21.025 205.089 20.85C205.286 20.85 205.483 20.85 205.68 20.85C208.243 20.85 209.623 22.425 209.623 24.875V25.4H203.314C203.117 26.625 204.103 27.5 205.483 27.675H205.68C206.469 27.85 207.454 27.325 207.849 26.8L209.623 26.625ZM203.314 24H207.849C207.849 22.95 207.06 22.075 205.877 21.9H205.68C204.497 22.075 203.314 22.95 203.314 24Z" fill="white"/>
<rect x="0.5" y="0.5" width="240" height="76" rx="9.5" stroke="white"/>
</svg>
