<svg width="241" height="77" viewBox="0 0 241 77" fill="none" xmlns="http://www.w3.org/2000/svg">
<path d="M85.8622 20.8311C85.8622 22.2297 85.5126 23.4534 84.4637 24.3274C83.4148 25.3763 82.1911 25.9008 80.6177 25.9008C79.0444 25.9008 77.8207 25.3763 76.7718 24.3274C75.7229 23.2786 75.1985 21.88 75.1985 20.4815C75.1985 18.9082 75.7229 17.6845 76.7718 16.6356C77.8207 15.5867 79.0444 15.0623 80.6177 15.0623C81.317 15.0623 82.0163 15.2371 82.7155 15.4119C83.4148 15.5867 83.9392 16.1111 84.2889 16.6356L83.4148 17.5097C82.7155 16.6356 81.8415 16.286 80.6177 16.286C79.5689 16.286 78.52 16.6356 77.8207 17.5097C76.9466 18.2089 76.597 19.2578 76.597 20.4815C76.597 21.7052 76.9466 22.7541 77.8207 23.4534C78.6948 24.1526 79.5689 24.6771 80.6177 24.6771C81.8415 24.6771 82.7155 24.3274 83.5896 23.4534C84.114 22.9289 84.4637 22.2297 84.4637 21.3556H80.6177V20.1319H85.6874C85.8622 20.3067 85.8622 20.6563 85.8622 20.8311Z" fill="white" stroke="white" stroke-width="0.34963" stroke-miterlimit="10"/>
<path d="M93.9037 16.4608H89.1837V19.7823H93.554V21.006H89.1837V24.3274H93.9037V25.726H87.7852V15.2371H93.9037V16.4608Z" fill="white" stroke="white" stroke-width="0.34963" stroke-miterlimit="10"/>
<path d="M99.6726 25.726H98.274V16.4608H95.3022V15.2371H102.47V16.4608H99.4977L99.6726 25.726Z" fill="white" stroke="white" stroke-width="0.34963" stroke-miterlimit="10"/>
<path d="M107.714 25.726V15.2371H109.113V25.726H107.714Z" fill="white" stroke="white" stroke-width="0.34963" stroke-miterlimit="10"/>
<path d="M115.056 25.726H113.658V16.4608H110.686V15.2371H117.853V16.4608H114.881L115.056 25.726Z" fill="white" stroke="white" stroke-width="0.34963" stroke-miterlimit="10"/>
<path d="M131.664 24.3274C130.615 25.3763 129.391 25.9008 127.818 25.9008C126.244 25.9008 125.021 25.3763 123.972 24.3274C122.923 23.2786 122.398 21.88 122.398 20.4815C122.398 19.083 122.923 17.6845 123.972 16.6356C125.021 15.5867 126.244 15.0623 127.818 15.0623C129.391 15.0623 130.615 15.5867 131.664 16.6356C132.713 17.6845 133.237 19.083 133.237 20.4815C133.237 22.0548 132.713 23.2786 131.664 24.3274ZM125.021 23.4534C125.72 24.1526 126.769 24.6771 127.818 24.6771C128.867 24.6771 129.916 24.3274 130.615 23.4534C131.314 22.7541 131.838 21.7052 131.838 20.4815C131.838 19.2578 131.489 18.2089 130.615 17.5097C129.916 16.8104 128.867 16.286 127.818 16.286C126.769 16.286 125.72 16.6356 125.021 17.5097C124.321 18.3837 123.797 19.2578 123.797 20.4815C123.797 21.7052 124.147 22.7541 125.021 23.4534Z" fill="white" stroke="white" stroke-width="0.34963" stroke-miterlimit="10"/>
<path d="M135.16 25.726V15.2371H136.733L141.803 23.4534V21.3556V15.2371H143.201V25.726H141.803L136.384 17.16V19.2578V25.726H135.16Z" fill="white" stroke="white" stroke-width="0.34963" stroke-miterlimit="10"/>
<path d="M122.049 41.1097C118.028 41.1097 114.532 44.2563 114.532 48.4519C114.532 52.8223 117.853 55.7941 122.049 55.7941C126.244 55.7941 129.566 52.6474 129.566 48.4519C129.566 44.0815 126.244 41.1097 122.049 41.1097ZM122.049 52.9971C119.776 52.9971 117.853 51.0741 117.853 48.4519C117.853 45.8297 119.776 43.9067 122.049 43.9067C124.321 43.9067 126.244 45.6549 126.244 48.4519C126.244 51.0741 124.321 52.9971 122.049 52.9971ZM105.791 41.1097C101.77 41.1097 98.2741 44.2563 98.2741 48.4519C98.2741 52.8223 101.596 55.7941 105.791 55.7941C109.812 55.7941 113.308 52.6474 113.308 48.4519C113.308 44.0815 109.987 41.1097 105.791 41.1097ZM105.791 52.9971C103.519 52.9971 101.596 51.0741 101.596 48.4519C101.596 45.8297 103.519 43.9067 105.791 43.9067C108.064 43.9067 109.987 45.6549 109.987 48.4519C109.987 51.0741 108.064 52.9971 105.791 52.9971ZM86.3867 43.3823V46.5289H93.9037C93.7289 48.2771 93.0296 49.6756 92.1556 50.5497C91.1067 51.5986 89.3585 52.8223 86.3867 52.8223C81.6667 52.8223 78.1704 49.1511 78.1704 44.4312C78.1704 39.7112 81.8415 36.04 86.3867 36.04C88.8341 36.04 90.757 37.0889 91.9807 38.3126L94.2533 36.04C92.3304 34.2919 89.883 32.8934 86.3867 32.8934C80.0933 32.8934 74.6741 38.1378 74.6741 44.4312C74.6741 50.7245 80.0933 55.9689 86.3867 55.9689C89.883 55.9689 92.5052 54.92 94.4281 52.6474C96.5259 50.5497 97.2252 47.5778 97.2252 45.3052C97.2252 44.606 97.2252 43.9067 97.0504 43.3823H86.3867ZM165.753 45.8297C165.228 44.0815 163.305 41.1097 159.459 41.1097C155.613 41.1097 152.467 44.0815 152.467 48.4519C152.467 52.6474 155.613 55.7941 159.809 55.7941C163.13 55.7941 165.228 53.6963 165.927 52.4726L163.48 50.7245C162.606 51.9482 161.557 52.8223 159.809 52.8223C158.061 52.8223 157.012 52.123 156.138 50.5497L166.102 46.3541L165.753 45.8297ZM155.439 48.2771C155.264 45.48 157.711 43.9067 159.284 43.9067C160.508 43.9067 161.732 44.606 162.081 45.48L155.439 48.2771ZM147.397 55.4445H150.719V33.5926H147.397V55.4445ZM142.153 42.683C141.279 41.8089 139.88 40.9349 138.132 40.9349C134.461 40.9349 130.964 44.2563 130.964 48.4519C130.964 52.6474 134.286 55.7941 138.132 55.7941C139.88 55.7941 141.279 54.92 141.978 54.046H142.153V55.0949C142.153 57.8919 140.579 59.4652 138.132 59.4652C136.209 59.4652 134.985 58.0667 134.461 56.843L131.664 58.0667C132.538 59.9897 134.636 62.4371 138.307 62.4371C142.153 62.4371 145.299 60.1645 145.299 54.7452V41.4593H142.153V42.683ZM138.307 52.9971C136.034 52.9971 134.111 51.0741 134.111 48.4519C134.111 45.8297 136.034 43.9067 138.307 43.9067C140.579 43.9067 142.327 45.8297 142.327 48.4519C142.327 51.0741 140.579 52.9971 138.307 52.9971ZM180.961 33.5926H173.095V55.4445H176.416V47.2282H180.961C184.633 47.2282 188.129 44.606 188.129 40.4104C188.129 36.2149 184.633 33.5926 180.961 33.5926ZM180.961 44.0815H176.241V36.5645H180.961C183.409 36.5645 184.807 38.6623 184.807 40.2356C184.807 42.1586 183.409 44.0815 180.961 44.0815ZM201.24 40.9349C198.967 40.9349 196.345 41.9837 195.471 44.2563L198.443 45.48C198.967 44.2563 200.191 43.9067 201.415 43.9067C203.163 43.9067 204.736 44.9556 204.911 46.7037V46.8786C204.387 46.5289 202.988 46.0045 201.59 46.0045C198.443 46.0045 195.296 47.7526 195.296 50.8993C195.296 53.8711 197.919 55.7941 200.716 55.7941C202.813 55.7941 204.037 54.7452 204.911 53.6963H205.086V55.4445H208.233V47.0534C207.883 43.2074 204.911 40.9349 201.24 40.9349ZM200.89 52.9971C199.841 52.9971 198.268 52.4726 198.268 51.0741C198.268 49.326 200.191 48.8015 201.764 48.8015C203.163 48.8015 203.862 49.1511 204.736 49.5008C204.387 51.5986 202.639 52.9971 200.89 52.9971ZM219.246 41.4593L215.575 50.8993H215.4L211.554 41.4593H208.058L213.827 54.7452L210.505 62.0874H213.827L222.742 41.4593H219.246ZM189.877 55.4445H193.199V33.5926H189.877V55.4445Z" fill="white"/>
<path d="M21.1807 16.1111C20.6563 16.6355 20.4814 17.5096 20.4814 18.5585V57.1926C20.4814 58.2415 20.8311 59.1155 21.3555 59.64L21.5303 59.8148L43.2074 38.1378V37.963V37.7881L21.1807 16.1111Z" fill="url(#paint0_linear_7_4)"/>
<path d="M50.1999 45.48L43.0325 38.3126V37.9629V37.7881L50.1999 30.6207L50.3748 30.7955L58.9407 35.6903C61.3881 37.0889 61.3881 39.3615 58.9407 40.76L50.1999 45.48Z" fill="url(#paint1_linear_7_4)"/>
<path d="M50.3748 45.3052L43.0326 37.963L21.1807 59.8148C22.0548 60.6889 23.2785 60.6889 24.8518 59.9896L50.3748 45.3052Z" fill="url(#paint2_linear_7_4)"/>
<path d="M50.3748 30.6208L24.8518 16.1111C23.4533 15.237 22.0548 15.237 21.1807 16.1111L43.0326 37.963L50.3748 30.6208Z" fill="url(#paint3_linear_7_4)"/>
<path opacity="0.2" d="M50.2 45.1304L24.8518 59.4652C23.4533 60.3393 22.2296 60.1645 21.3555 59.4652L21.1807 59.64L21.3555 59.8148C22.2296 60.5141 23.4533 60.6889 24.8518 59.8148L50.2 45.1304Z" fill="black"/>
<path opacity="0.12" d="M21.1807 59.4652C20.6563 58.9408 20.4814 58.0667 20.4814 57.0178V57.1926C20.4814 58.2415 20.8311 59.1156 21.3555 59.64V59.4652H21.1807Z" fill="black"/>
<path opacity="0.12" d="M58.9407 40.2355L50.2 45.1304L50.3748 45.3052L58.9407 40.4104C60.1644 39.7111 60.6888 38.837 60.6888 37.963C60.6888 38.837 60.1644 39.5363 58.9407 40.2355Z" fill="black"/>
<path opacity="0.25" d="M24.8518 16.2859L58.9407 35.6904C59.9896 36.3896 60.6889 37.0889 60.6889 37.963C60.6889 37.0889 60.1644 36.2148 58.9407 35.5155L24.8518 16.1111C22.4044 14.7126 20.4814 15.7615 20.4814 18.5585V18.7333C20.4814 16.1111 22.4044 14.8874 24.8518 16.2859Z" fill="white"/>
<rect x="0.5" y="0.5" width="240" height="76" rx="9.5" stroke="white"/>
<defs>
<linearGradient id="paint0_linear_7_4" x1="41.1138" y1="18.2309" x2="11.7757" y2="47.569" gradientUnits="userSpaceOnUse">
<stop stop-color="#00A0FF"/>
<stop offset="0.00657445" stop-color="#00A1FF"/>
<stop offset="0.2601" stop-color="#00BEFF"/>
<stop offset="0.5122" stop-color="#00D2FF"/>
<stop offset="0.7604" stop-color="#00DFFF"/>
<stop offset="1" stop-color="#00E3FF"/>
</linearGradient>
<linearGradient id="paint1_linear_7_4" x1="62.1473" y1="37.9629" x2="19.8475" y2="37.9629" gradientUnits="userSpaceOnUse">
<stop stop-color="#FFE000"/>
<stop offset="0.4087" stop-color="#FFBD00"/>
<stop offset="0.7754" stop-color="#FFA500"/>
<stop offset="1" stop-color="#FF9C00"/>
</linearGradient>
<linearGradient id="paint2_linear_7_4" x1="46.4027" y1="41.9786" x2="6.61778" y2="81.7635" gradientUnits="userSpaceOnUse">
<stop stop-color="#FF3A44"/>
<stop offset="1" stop-color="#C31162"/>
</linearGradient>
<linearGradient id="paint3_linear_7_4" x1="15.7513" y1="3.31345" x2="33.5171" y2="21.079" gradientUnits="userSpaceOnUse">
<stop stop-color="#32A071"/>
<stop offset="0.0685" stop-color="#2DA771"/>
<stop offset="0.4762" stop-color="#15CF74"/>
<stop offset="0.8009" stop-color="#06E775"/>
<stop offset="1" stop-color="#00F076"/>
</linearGradient>
</defs>
</svg>
